# xmcd
#
# Track frame offsets:
#	150
#	16800
#	33150
#	50925
#	64050
#	81600
#	98325
#	112425
#	130500
#	145050
#	165000
#	179550
#	197400
#	216300
#	231075
#	248775
#	264075
#	277200
#
# Disc length: 3920 seconds
#
# Revision: 1
# Processed by: cddbd v1.5.1PL0 Copyright (c) Steve Scherf et al.
# Submitted via: audiograbber 1.82.02
#
DISCID=fc0f4e12
DTITLE=Rising Star - RS502
DYEAR=1900
DGENRE=country
TTITLE0=Kathy Mattea - 455 Rocket
TTITLE1=Kippi Brannon - Daddy's Little Girl
TTITLE2=Deana Carter - Strawberry Wine
TTITLE3=LeAnn Rimes - Blue
TTITLE4=LeAnn Rimes - Unchained Melody
TTITLE5=LeAnn Rimes - One Way Ticket
TTITLE6=Mindy McCready - Guys Do It All The Time
TTITLE7=Mindy McCready - Maybe He'll Notice Her Now
TTITLE8=Terri Clark - Poor Poor Pitiful Me
TTITLE9=Shania Twain - Whose Bed Have Your Boots Been Under
TTITLE10=Shania Twain - No One Needs To Know
TTITLE11=Shania Twain - If You're Not In It For Love
TTITLE12=Shania Twain - Any Man Of Mine
TTITLE13=Faith Hill - It Matters To Me
TTITLE14=Alison Krauss - When You Say Nothing At All
TTITLE15=Patty Loveless - You Can Feel Bad
TTITLE16=Mary Chapin Carpenter - Let Me Into Your Heart
TTITLE17=Trisha Yearwood - Believe Me Baby (I Lied)
EXTD=
EXTT0=
EXTT1=
EXTT2=
EXTT3=
EXTT4=
EXTT5=
EXTT6=
EXTT7=
EXTT8=
EXTT9=
EXTT10=
EXTT11=
EXTT12=
EXTT13=
EXTT14=
EXTT15=
EXTT16=
EXTT17=
PLAYORDER=
